<?xml version="1.0" encoding="UTF-8" standalone="no"?>
<!-- Generator: Adobe Illustrator 19.0.0, SVG Export Plug-In . SVG Version: 6.00 Build 0)  -->

<svg
   xmlns:dc="http://purl.org/dc/elements/1.1/"
   xmlns:cc="http://creativecommons.org/ns#"
   xmlns:rdf="http://www.w3.org/1999/02/22-rdf-syntax-ns#"
   xmlns:svg="http://www.w3.org/2000/svg"
   xmlns="http://www.w3.org/2000/svg"
   xmlns:sodipodi="http://sodipodi.sourceforge.net/DTD/sodipodi-0.dtd"
   xmlns:inkscape="http://www.inkscape.org/namespaces/inkscape"
   version="1.1"
   id="Layer_1"
   x="0px"
   y="0px"
   viewBox="0 0 512 512"
   style="enable-background:new 0 0 512 512;"
   xml:space="preserve"
   sodipodi:docname="vinyl.svg"
   inkscape:version="0.92.3 (2405546, 2018-03-11)"><metadata
   id="metadata4738"><rdf:RDF><cc:Work
       rdf:about=""><dc:format>image/svg+xml</dc:format><dc:type
         rdf:resource="http://purl.org/dc/dcmitype/StillImage" /><dc:title></dc:title></cc:Work></rdf:RDF></metadata><defs
   id="defs4736" /><sodipodi:namedview
   pagecolor="#ffffff"
   bordercolor="#666666"
   borderopacity="1"
   objecttolerance="10"
   gridtolerance="10"
   guidetolerance="10"
   inkscape:pageopacity="0"
   inkscape:pageshadow="2"
   inkscape:window-width="1920"
   inkscape:window-height="1001"
   id="namedview4734"
   showgrid="false"
   inkscape:zoom="1.3037281"
   inkscape:cx="93.319238"
   inkscape:cy="229.46254"
   inkscape:window-x="-9"
   inkscape:window-y="-9"
   inkscape:window-maximized="1"
   inkscape:current-layer="g4695" />
<g
   id="g4695">
	<g
   id="g4693">
		<path
   d="M256,0C114.84,0,0,114.84,0,256s114.84,256,256,256s256-114.84,256-256S397.16,0,256,0z M435.852,248c4.416,0,8,3.584,8,8    c0,103.584-84.268,187.852-187.852,187.852c-4.416,0-8-3.584-8-8c0-4.416,3.584-8,8-8c94.756,0,171.852-77.092,171.852-171.852    C427.852,251.584,431.432,248,435.852,248z M404.108,248c4.416,0,8,3.584,8,8c0,86.08-70.032,156.108-156.108,156.108    c-4.416,0-8-3.584-8-8c0-4.416,3.584-8,8-8c77.256,0,140.108-62.852,140.108-140.108C396.108,251.584,399.692,248,404.108,248z     M371.784,248c4.416,0,8,3.584,8,8c0,68.252-55.532,123.784-123.784,123.784c-4.416,0-8-3.584-8-8c0-4.416,3.584-8,8-8    c59.432,0,107.784-48.352,107.784-107.784C363.784,251.584,367.368,248,371.784,248z M44.492,264c-4.416,0-8-3.584-8-8    c0-121.036,98.472-219.508,219.508-219.508c4.416,0,8,3.584,8,8s-3.584,8-8,8C143.784,52.492,52.492,143.784,52.492,256    C52.492,260.416,48.912,264,44.492,264z M76.148,264c-4.416,0-8-3.584-8-8c0-103.584,84.268-187.852,187.852-187.852    c4.416,0,8,3.584,8,8c0,4.416-3.584,8-8,8C161.244,84.148,84.148,161.24,84.148,256C84.148,260.416,80.568,264,76.148,264z     M107.892,264c-4.416,0-8-3.584-8-8c0-86.08,70.032-156.108,156.108-156.108c4.416,0,8,3.584,8,8c0,4.416-3.584,8-8,8    c-77.256,0-140.108,62.852-140.108,140.108C115.892,260.416,112.308,264,107.892,264z M140.216,264c-4.416,0-8-3.584-8-8    c0-68.252,55.532-123.784,123.784-123.784c4.416,0,8,3.584,8,8s-3.584,8-8,8c-59.432,0-107.784,48.352-107.784,107.784    C148.216,260.416,144.632,264,140.216,264z M176.288,256c0-43.952,35.756-79.712,79.712-79.712s79.712,35.76,79.712,79.712    c0,43.952-35.76,79.712-79.712,79.712C212.048,335.712,176.288,299.952,176.288,256z M256,475.508c-4.416,0-8-3.584-8-8    c0-4.416,3.584-8,8-8c112.216,0,203.508-91.292,203.508-203.508c0-4.416,3.584-8,8-8c4.416,0,8,3.584,8,8    C475.508,377.036,377.036,475.508,256,475.508z"
   id="path4691" />
	</g>
<path
   style="fill:#1ed760;fill-opacity:0.90860218;stroke:#00c800;stroke-width:0.76703107"
   d="m 241.39396,334.00578 c -24.51276,-4.64354 -45.58695,-20.89997 -56.67855,-43.72131 -14.16151,-29.13781 -9.01173,-63.99116 13.00239,-87.99921 16.71764,-18.23186 42.54334,-27.98861 66.51014,-25.12702 33.02036,3.94256 58.80268,25.82339 68.22392,57.89999 2.89301,9.84983 3.44903,25.96483 1.26025,36.52497 -3.024,14.58976 -9.70498,27.46828 -19.83713,38.23882 -10.66565,11.33766 -22.70578,18.69556 -37.1221,22.6859 -9.17119,2.53851 -26.08344,3.25495 -35.35892,1.49786 z m 22.7431,-59.72018 c 7.41494,-3.46818 11.23423,-9.14688 11.74105,-17.45717 0.51513,-8.44654 -3.36678,-15.01379 -11.11564,-18.80496 -13.61863,-6.66297 -28.59171,2.84442 -28.61455,18.16928 -0.0218,14.61808 14.85614,24.23553 27.98914,18.09285 z"
   id="path5364"
   inkscape:connector-curvature="0" /><path
   style="fill:#1ed760;fill-opacity:1;stroke:#00c800;stroke-width:0.76703107"
   d="m 253.31281,378.93622 c -3.10955,-1.34157 -5.08455,-4.75597 -4.64729,-8.03429 0.70653,-5.29722 2.13353,-6.00666 14.24043,-7.07971 5.8846,-0.52156 14.40765,-1.84196 18.94011,-2.93422 39.42549,-9.50103 71.30641,-42.22361 79.74472,-81.85002 0.65918,-3.09551 1.66159,-10.44845 2.22756,-16.33988 0.96388,-10.03333 1.15808,-10.82267 3.06653,-12.46425 4.23722,-3.64471 11.29254,-0.90931 12.36229,4.79295 0.64608,3.44392 -0.89415,18.9324 -2.71014,27.25296 -5.50604,25.22779 -19.07915,48.1957 -39.10581,66.17343 -17.11228,15.36152 -40.3612,26.20975 -63.32275,29.54715 -8.43464,1.22596 -19.01921,1.7023 -20.79565,0.93588 z"
   id="path5400"
   inkscape:connector-curvature="0" /><path
   style="fill:#1ed760;fill-opacity:1;stroke:#00c800;stroke-width:0.76703107"
   d="m 251.02083,409.25099 c -2.87951,-2.87951 -3.29611,-5.34182 -1.49353,-8.82761 1.51823,-2.93593 3.9937,-3.70225 13.7561,-4.2584 27.84436,-1.58629 52.33933,-10.31251 75.86632,-27.02703 8.44033,-5.99635 24.32762,-22.00981 30.45411,-30.69599 16.31532,-23.13192 25.07832,-47.86972 26.51314,-74.84619 0.53148,-9.99247 1.2819,-12.47143 4.23805,-14.00012 2.71593,-1.40446 4.80299,-1.41041 7.48913,-0.0214 4.06686,2.10306 4.66693,6.15697 3.14715,21.26137 -2.9059,28.88033 -13.72454,56.2906 -31.50826,79.82974 -6.15867,8.15183 -20.73415,22.72732 -28.88599,28.88599 -19.94848,15.07099 -42.59693,25.16897 -66.2284,29.52842 -7.68127,1.41701 -20.68196,2.77908 -26.52581,2.77908 -3.7698,0 -4.48906,-0.27496 -6.82201,-2.60791 z"
   id="path5402"
   inkscape:connector-curvature="0" /><path
   style="fill:#1ed760;fill-opacity:1;stroke:#00c800;stroke-width:0.76703107"
   d="m 251.22,441.68951 c -1.46218,-1.25772 -2.26803,-2.82892 -2.55739,-4.98626 -0.36579,-2.72715 -0.1157,-3.49323 1.86344,-5.70827 l 2.28592,-2.5584 11.15884,-0.58744 c 25.47361,-1.34101 46.80214,-6.89558 68.81553,-17.92157 51.39559,-25.74285 86.29795,-74.7308 93.9857,-131.91559 0.28357,-2.10934 0.77356,-8.64013 1.08885,-14.51286 l 0.57326,-10.6777 2.42874,-2.17007 c 3.39386,-3.03242 7.09614,-2.96568 10.24653,0.18471 l 2.35478,2.35478 -0.4465,12.02705 c -1.68008,45.25498 -21.5163,90.05591 -54.45108,122.98009 -24.25718,24.24936 -54.81317,41.64407 -87.22855,49.65688 -13.19288,3.26117 -22.91788,4.64854 -36.45584,5.20079 -11.37444,0.46398 -11.55564,0.44587 -13.66223,-1.36614 z"
   id="path5404"
   inkscape:connector-curvature="0" /><path
   style="fill:#1ed760;fill-opacity:1;stroke:#00c800;stroke-width:0.76703107"
   d="m 253.8267,474.55426 c -3.02004,-0.78511 -5.41378,-3.98987 -5.41378,-7.24805 0,-3.37477 3.49082,-7.11914 6.65252,-7.13573 6.04384,-0.0317 25.10375,-1.65892 31.96324,-2.72883 43.16345,-6.7324 81.91966,-26.44763 112.90832,-57.4363 36.90291,-36.9029 56.98931,-82.8725 59.82357,-136.91179 0.52175,-9.94793 0.61776,-10.39292 2.68909,-12.46426 4.04263,-4.04262 11.36597,-1.71138 12.50435,3.9805 0.62035,3.10176 -0.69666,23.19036 -2.19792,33.52531 -14.83747,102.14364 -102.48039,181.87616 -204.97933,186.47847 -6.4355,0.28896 -12.71303,0.26227 -13.95006,-0.0593 z"
   id="path5406"
   inkscape:connector-curvature="0" /><path
   style="fill:#1ed760;fill-opacity:1;stroke:#00c800;stroke-width:0.76703107"
   d="m 137.49111,263.09919 c -3.30028,-1.39261 -4.89988,-4.51484 -4.89988,-9.56401 0,-10.11585 2.50847,-24.63373 6.21742,-35.98355 15.61751,-47.79142 60.45689,-82.15378 110.48463,-84.66915 l 9.01412,-0.45323 2.82013,2.82013 c 2.51002,2.51002 2.7699,3.12965 2.36335,5.63491 -0.25122,1.54814 -1.31086,3.66887 -2.35474,4.71275 -1.72217,1.72217 -2.7619,1.95622 -11.22529,2.5269 -27.79551,1.87422 -51.05892,12.43442 -70.55436,32.02749 -19.18892,19.28501 -29.25343,41.95104 -31.31881,70.53229 -0.55312,7.65408 -0.8344,8.84606 -2.47428,10.48492 -2.09334,2.09204 -5.66516,2.94627 -8.07229,1.93055 z"
   id="path5408"
   inkscape:connector-curvature="0" /><path
   style="fill:#1ed760;fill-opacity:1;stroke:#00c800;stroke-width:0.76703107"
   d="m 105.27581,263.07016 c -3.53365,-1.42776 -4.90034,-4.40641 -4.89359,-10.66541 0.0213,-19.77683 5.86303,-43.99583 15.3503,-63.64024 15.19182,-31.45632 39.77978,-56.40972 70.98073,-72.0357 20.16361,-10.09829 45.04346,-16.28453 65.49319,-16.28453 6.0426,0 6.92261,0.18693 8.71947,1.8522 3.8364,3.55546 3.47663,8.73684 -0.80833,11.6413 -1.99,1.34888 -3.99701,1.68282 -12.59687,2.09599 -44.91704,2.15796 -86.75709,27.23516 -111.28122,66.69736 -12.28677,19.77085 -20.45031,47.10394 -20.50797,68.66461 -0.0173,6.46417 -1.27419,9.54689 -4.59205,11.26263 -2.50856,1.29722 -3.49992,1.36685 -5.86366,0.41179 z"
   id="path5412"
   inkscape:connector-curvature="0" /><path
   style="fill:#1ed760;fill-opacity:1;stroke:#00c800;stroke-width:0.76703107"
   d="m 72.234602,262.32487 c -3.532768,-2.15408 -4.050626,-4.95885 -3.256835,-17.63935 2.811109,-44.9064 20.703752,-85.64409 51.931463,-118.23675 33.99882,-35.48488 80.86908,-56.521961 128.39444,-57.628099 8.02225,-0.186715 9.16411,-0.04518 11.07359,1.372551 3.99661,2.967368 4.28828,8.058401 0.65461,11.425977 -1.67371,1.551139 -2.97868,1.81593 -11.28269,2.289372 -44.86028,2.557649 -82.21629,18.502969 -113.15809,48.301249 -31.44985,30.28755 -49.568605,69.73991 -52.341641,113.97037 -0.40996,6.53894 -1.165267,12.69504 -1.67846,13.68023 -1.017711,1.95373 -4.322352,3.96316 -6.510211,3.95861 -0.759218,-0.002 -2.480997,-0.67395 -3.826176,-1.49416 z"
   id="path5414"
   inkscape:connector-curvature="0" /><path
   style="fill:#1ed760;fill-opacity:1;stroke:#00c800;stroke-width:0.76703107"
   d="m 41.698046,263.12581 c -0.843734,-0.3613 -2.22439,-1.42889 -3.068124,-2.37243 -1.383666,-1.54732 -1.522557,-2.70297 -1.416706,-11.78775 0.619111,-53.13582 24.478143,-108.24011 63.961044,-147.72301 39.03308,-39.033083 90.30735,-61.604544 145.76119,-64.165577 l 11.17855,-0.51626 2.61058,2.332556 c 2.18567,1.952897 2.61059,2.857494 2.61059,5.557671 0,2.62937 -0.43363,3.612557 -2.34748,5.322579 -2.24843,2.008975 -2.79781,2.117951 -13.02213,2.583052 -39.72732,1.807185 -76.13081,14.035823 -108.3774,36.406068 C 95.018569,119.68173 64.120619,168.26883 55.139444,221.5585 c -1.720602,10.20916 -3.080042,24.18534 -3.083857,31.70462 -0.0023,4.56042 -0.249657,5.43649 -2.111957,7.48046 -2.241622,2.46028 -5.717901,3.46462 -8.245584,2.38223 z"
   id="path5416"
   inkscape:connector-curvature="0" /></g>
<g
   id="g4701">
	<g
   id="g4699">
		<path
   d="M256,236.112c-10.968,0-19.892,8.92-19.892,19.888s8.92,19.888,19.892,19.888c10.964,0,19.888-8.92,19.888-19.888    C275.888,245.032,266.964,236.112,256,236.112z"
   id="path4697" />
	</g>
</g>
<g
   id="g4703">
</g>
<g
   id="g4705">
</g>
<g
   id="g4707">
</g>
<g
   id="g4709">
</g>
<g
   id="g4711">
</g>
<g
   id="g4713">
</g>
<g
   id="g4715">
</g>
<g
   id="g4717">
</g>
<g
   id="g4719">
</g>
<g
   id="g4721">
</g>
<g
   id="g4723">
</g>
<g
   id="g4725">
</g>
<g
   id="g4727">
</g>
<g
   id="g4729">
</g>
<g
   id="g4731">
</g>
</svg>