<?xml version="1.0" encoding="UTF-8" standalone="no"?>
<!-- Created with Inkscape (http://www.inkscape.org/) -->

<svg
   xmlns:dc="http://purl.org/dc/elements/1.1/"
   xmlns:cc="http://creativecommons.org/ns#"
   xmlns:rdf="http://www.w3.org/1999/02/22-rdf-syntax-ns#"
   xmlns:svg="http://www.w3.org/2000/svg"
   xmlns="http://www.w3.org/2000/svg"
   xmlns:sodipodi="http://sodipodi.sourceforge.net/DTD/sodipodi-0.dtd"
   xmlns:inkscape="http://www.inkscape.org/namespaces/inkscape"
   width="210mm"
   height="297mm"
   viewBox="0 0 210 297"
   version="1.1"
   id="svg8"
   inkscape:version="0.92.3 (2405546, 2018-03-11)"
   sodipodi:docname="drawing.svg">
  <defs
     id="defs2" />
  <sodipodi:namedview
     id="base"
     pagecolor="#ffffff"
     bordercolor="#666666"
     borderopacity="1.0"
     inkscape:pageopacity="0.0"
     inkscape:pageshadow="2"
     inkscape:zoom="0.98994949"
     inkscape:cx="434.52083"
     inkscape:cy="536.79358"
     inkscape:document-units="mm"
     inkscape:current-layer="layer1"
     showgrid="false"
     inkscape:window-width="1920"
     inkscape:window-height="1001"
     inkscape:window-x="-9"
     inkscape:window-y="-9"
     inkscape:window-maximized="1" />
  <metadata
     id="metadata5">
    <rdf:RDF>
      <cc:Work
         rdf:about="">
        <dc:format>image/svg+xml</dc:format>
        <dc:type
           rdf:resource="http://purl.org/dc/dcmitype/StillImage" />
        <dc:title></dc:title>
      </cc:Work>
    </rdf:RDF>
  </metadata>
  <g
     inkscape:label="Layer 1"
     inkscape:groupmode="layer"
     id="layer1">
    <path
       style="fill:none;stroke:#000000;stroke-width:0.24872276px;stroke-linecap:butt;stroke-linejoin:miter;stroke-opacity:1"
       d="m 84.243251,132.72323 c 47.797249,10.65007 3.664654,57.45867 3.664654,57.45867 L 84.65984,209.87969 170.33449,196.9431 C 169.48726,199.27298 39.598063,327.30989 57.413362,160.08453 72.452131,18.921388 75.162613,65.455953 75.162613,65.455953 c 0,0 179.735557,-18.503013 83.500927,1.022122 -96.234646,19.525136 9.92111,24.972647 9.92111,24.972647 z"
       id="path10"
       inkscape:connector-curvature="0"
       sodipodi:nodetypes="ccccscscc" />
    <path
       style="fill:#333333;stroke-width:1.01015258"
       d="m 310.91131,926.76371 c -20.54191,-4.25662 -36.68244,-13.20115 -50.97727,-28.2499 -26.18981,-27.57105 -40.77985,-70.7774 -46.74585,-138.43121 -1.82382,-20.68183 -1.54959,-77.96247 0.5102,-106.57109 3.77007,-52.36277 21.72561,-209.54904 33.51758,-293.41934 13.19877,-93.87611 24.45698,-144.46076 30.7711,-138.25877 1.53278,1.50556 3.73198,10.97894 4.60466,19.83532 l 0.6822,6.92324 4.66023,-0.59768 c 14.04964,-1.80189 130.94461,-12.72091 183.96231,-17.18371 149.41654,-12.57722 230.81654,-15.71521 233.0601,-8.98452 1.26205,3.78612 -33.34319,13.37411 -94.16412,26.08982 -104.09053,21.76199 -148.68202,35.83517 -161.38691,50.93407 -17.0472,20.25944 40.93649,36.65961 162.81037,46.04946 10.78342,0.83082 19.72551,1.62986 19.87131,1.77566 0.14579,0.14579 -70.82745,35.03735 -157.71832,77.53679 -107.377,52.51947 -157.42555,77.48806 -156.24189,77.94712 0.95783,0.37147 7.42361,2.32092 14.36841,4.33208 14.86921,4.30602 32.06408,12.47401 41.74875,19.83171 38.82163,29.49378 35.70473,81.61249 -8.87075,148.33004 -8.29419,12.41419 -21.51678,29.69642 -29.06426,37.98765 l -4.77257,5.24285 -6.2521,37.51747 c -3.43865,20.6346 -5.97171,37.79786 -5.62901,38.14055 0.34271,0.34271 49.16967,-6.70645 108.50439,-15.6648 59.33471,-8.95834 130.38244,-19.67615 157.88384,-23.81735 27.5014,-4.14121 51.36392,-7.78658 53.02783,-8.10084 2.84096,-0.53656 2.62554,-0.16378 -3.53554,6.11849 -10.15431,10.35405 -38.36779,35.94436 -55.09248,49.97021 -50.7168,42.53271 -96.28493,73.56873 -140.87193,95.9465 -28.25322,14.18001 -50.34527,22.22966 -76.26652,27.78913 -11.10672,2.38213 -42.77111,2.97502 -52.39376,0.98105 z"
       id="path14"
       inkscape:connector-curvature="0"
       transform="scale(0.26458333)" />
    <path
       style="fill:#00ff00;stroke-width:0.26458332"
       id="path38"
       d="m 78.055953,76.721966 c 1.332352,2.99996 1.95035,6.251784 2.50204,9.468734 0.27363,1.707205 0.482873,3.423272 0.584182,5.149548 0.04977,0.848072 0.02439,1.710489 0.135609,2.55396 -1.147677,0.379793 -2.23466,1.174586 -3.443036,1.139383 -0.415422,-0.01209 0.113824,-0.823378 0.173824,-1.234625 0.354978,-2.433024 0.73606,-4.86174 1.076203,-7.296952 0.380502,-2.127512 0.52198,-4.293288 0.869053,-6.424557 1.214898,-0.549741 2.336218,-1.392145 3.644691,-1.649224 0.299543,-0.05885 0.150117,0.592949 0.193635,0.895101 0.182044,1.263996 0.254463,2.541418 0.394962,3.810706 0.205888,1.860018 0.314619,2.613927 0.555956,4.444529 0.124415,0.78712 0.347988,2.321015 0.542838,3.163951 0.05477,0.23695 0.08859,0.490178 0.217413,0.696452 0.04361,0.06983 0.14769,-0.262866 0.06952,-0.237011 -1.078646,0.356783 -2.031257,1.309095 -3.166372,1.261351 -0.46999,-0.01976 0.188346,-0.921766 0.282519,-1.382652 0.751091,-4.403285 1.595168,-8.784362 2.584813,-13.140126 0.799015,-3.316695 0.569415,-4.440356 4.912412,-5.245394 0.313373,-0.05809 0.232448,0.59676 0.296765,0.908913 0.09943,0.482568 0.128323,0.977019 0.192484,1.46553 0.194321,1.655587 0.365477,3.314996 0.618572,4.963123 0.05671,0.369271 0.319017,1.999064 0.484535,2.44675 0.07111,0.192331 0.224485,0.343217 0.336727,0.514826 1.357212,-0.163044 1.567743,-0.229087 -2.678838,1.51588 -0.211545,0.08693 0.329679,-0.320299 0.464162,-0.505291 0.533921,-0.734459 0.795824,-1.589503 1.06018,-2.443297 0.570746,-2.401512 -0.104315,-3.072675 4.013483,-3.213542 0.35002,-0.01199 0.02655,0.700122 0.02619,1.050348 -5.29e-4,0.473975 -0.01918,0.947756 -0.02875,1.421636 -0.04966,1.802161 -0.245501,3.595883 -0.416229,5.389311 -0.09103,0.956204 -0.15204,1.939218 -0.306726,2.890147 -1.194382,0.463557 -2.315096,1.207695 -3.583146,1.390673 -0.295365,0.04262 0.06409,-0.59351 0.106177,-0.888952 0.236611,-1.660861 0.578742,-3.306638 0.923044,-4.947666 0.716235,-3.109354 0.389755,-3.448838 4.508209,-4.908809 0.254947,-0.09038 0.412025,0.357574 0.571645,0.57595 0.204796,0.280175 0.341323,0.604361 0.511987,0.906542 0.991627,2.34778 1.481821,4.864775 2.056027,7.337536 0.270944,0.276027 0.08893,0.869045 0.3668,1.167842 0.04071,0.04377 0.151511,-0.169312 0.0941,-0.152665 -1.037814,0.300924 -2.064411,1.392955 -3.07776,1.017805 -0.634256,-0.23481 0.379825,-1.298321 0.556848,-1.95107 0.213323,-0.786601 0.409397,-1.577776 0.614097,-2.366663 0.557922,-2.16036 1.086247,-4.328702 1.538867,-6.513804 0.215448,-1.040106 0.318093,-2.13438 0.768425,-3.105459 1.24699,-0.576408 2.40388,-1.413904 3.74097,-1.729222 0.27114,-0.06394 0.24356,0.503815 0.32271,0.770909 0.51469,1.736667 0.53103,3.712871 0.57886,5.508154 -0.004,2.681653 0.41066,4.275153 -3.96681,4.195569 -0.50903,-0.0093 -0.30737,-0.972285 -0.41464,-1.469964 -0.17465,-0.810239 -0.28675,-1.632709 -0.43012,-2.449065 -0.476059,-2.521778 -0.702865,-5.084342 -1.12088,-7.614462 -0.08989,-0.544111 -0.307557,-2.046754 -0.745609,-2.636573 -0.09306,-0.125302 -0.288624,-0.118907 -0.432938,-0.178361 0.978291,-0.477181 1.850001,-1.343205 2.934877,-1.431544 0.53771,-0.04379 -0.692578,0.829408 -0.998386,1.27386 -0.48069,0.698624 -0.9069,1.433216 -1.358215,2.151168 -1.520338,2.418554 -3.029172,4.843204 -4.567526,7.250393 -1.285081,1.954578 -2.517746,3.945163 -3.857212,5.863738 -0.145968,0.209077 -1.026896,1.518801 -1.43591,1.766676 -1.238316,0.750451 -2.548675,1.375013 -3.823012,2.06252 -0.140388,-0.136618 -0.311452,-0.247568 -0.421158,-0.409853 -0.629457,-0.931127 -0.313926,-2.55986 -0.113433,-3.579765 0.479052,-1.993643 0.590172,-1.708155 3.866978,-2.853012 0.182941,-0.06392 0.117274,0.374094 0.125159,0.567719 0.01453,0.356737 -0.170934,1.139235 -0.235985,1.456258 -0.661569,2.498699 -0.476284,3.118311 -4.111852,4.251971 -0.322001,0.100407 -0.257514,-0.637948 -0.270746,-0.974976 -0.0196,-0.499589 0.11598,-0.993196 0.173969,-1.489792 0.246192,-0.747014 0.453038,-1.508162 0.738579,-2.241037 0.513919,-1.319022 1.624171,-3.597931 2.279251,-4.861777 0.645628,-1.245611 1.232693,-2.353381 2.072899,-3.466703 0.240932,-0.319249 0.53313,-0.59636 0.799695,-0.894543 0.08187,-0.04768 3.050074,-2.933443 4.6258,-2.20508 0.83102,0.38413 1.129859,1.478661 1.414976,2.255123 0.04883,0.125701 0.177491,0.702323 0.460865,0.735589 0.144274,0.01693 0.931981,-0.517879 0.89227,-0.49726 -2.629276,1.365115 -3.451905,2.089274 -1.734714,0.737854 0.797496,-0.607851 1.544542,-1.274088 2.287701,-1.945455 0.15975,-0.144319 0.297961,-0.318717 0.482978,-0.428794 1.227479,-0.730303 2.439219,-1.502532 3.743109,-2.085557 0.13277,-0.05937 0.23708,0.168555 0.35561,0.252831 0.62566,0.946504 0.25581,2.144683 0.59402,3.157251 0.53193,-0.02384 0.20484,0.01008 0.97101,-0.174199 0,0 -3.13144,2.338943 -3.13144,2.338943 v 0 c -1.000702,0.04418 -0.577736,0.173742 -1.302131,-0.256198 -0.05036,-0.148305 -0.125833,-0.290338 -0.151069,-0.44491 -0.02876,-0.176168 -0.003,-0.357021 -0.009,-0.535422 -0.02111,-0.63427 -0.02792,-1.31332 -0.28742,-1.901883 -1.319537,-0.01408 -0.447645,0.02302 2.85079,-1.822969 0.19472,-0.108974 -0.34916,0.27826 -0.5162,0.426197 -0.75743,0.670774 -1.483822,1.37859 -2.302742,1.978326 -1.913083,1.603394 -1.076653,0.974786 -4.913405,3.14633 -0.939596,0.531796 -1.446617,0.140118 -1.722374,-0.779397 -0.190222,-0.536514 -0.354446,-1.212262 -0.77843,-1.626269 -0.111829,-0.109199 -0.250063,-0.205848 -0.402439,-0.24066 -0.158184,-0.03614 -0.615919,0.134118 -0.485302,0.03785 0.820687,-0.604842 1.737373,-1.067228 2.606061,-1.600843 -0.297291,0.289889 -0.625086,0.551479 -0.891873,0.869665 -0.909466,1.08468 -1.533491,2.211887 -2.201841,3.464443 -0.676381,1.267608 -1.745856,3.448566 -2.259074,4.79135 -0.264575,0.692238 -0.445288,1.41368 -0.66793,2.120519 -0.04203,0.451805 -0.07198,0.904902 -0.1261,1.355418 -0.01349,0.112382 0.01543,0.264772 -0.07647,0.330849 -3.782359,2.719535 -3.481483,3.063057 -2.952687,1.41347 0.162978,-0.50841 0.288145,-0.974513 0.432343,-1.48939 0.48715,-2.341184 -0.103392,0.574127 0.239609,-1.328714 0.01201,-0.0667 -0.0011,-0.158821 0.05598,-0.195453 7.146959,-4.591473 3.614624,-2.873147 3.157551,-1.661594 -0.07491,0.198552 -0.11538,0.408438 -0.17307,0.612656 -0.182919,0.768607 -0.552955,2.481893 -0.05653,3.183901 0.04303,0.06085 0.131657,0.06988 0.197485,0.104823 -0.96855,0.604927 -1.907987,1.259181 -2.905652,1.814785 -0.264591,0.147351 0.49121,-0.360932 0.695884,-0.584158 0.331734,-0.361799 0.613984,-0.766392 0.904925,-1.161741 1.405768,-1.910251 2.666611,-3.922622 3.972991,-5.900266 1.533933,-2.392061 3.06532,-4.7874 4.528357,-7.223874 0.421616,-0.70214 0.823886,-1.415727 1.239417,-2.121487 0.270235,-0.458983 0.385249,-1.062003 0.817859,-1.372714 1.232344,-0.885095 2.688426,-1.407342 4.032637,-2.111012 0.1666,0.141859 0.38999,0.236315 0.4998,0.425577 0.38317,0.660394 0.5599,2.192072 0.6427,2.794052 0.3487,2.535185 0.562,5.091952 1.09118,7.600972 0.17618,0.783134 0.31857,1.574643 0.52854,2.349402 0.1203,0.443891 0.73946,0.934815 0.46063,1.300551 -0.78728,1.032634 -2.0806,1.558105 -3.17404,2.258489 -0.12728,0.08153 0.20925,-0.234958 0.24443,-0.381966 0.10913,-0.455994 0.10881,-1.961319 0.11612,-2.33091 -0.0259,-1.449922 -0.0787,-2.873066 -0.35194,-4.30234 -0.0661,-0.345757 -0.14454,-0.690097 -0.24871,-1.026348 -0.0558,-0.180054 -0.37228,-0.393959 -0.22938,-0.516876 0.95421,-0.820762 2.12408,-1.350902 3.18612,-2.026354 -0.11253,0.130072 -0.26629,0.233698 -0.33759,0.390213 -0.26191,0.57491 -0.56785,2.221719 -0.66934,2.67544 -0.49028,2.191814 -1.03626,4.3702 -1.58728,6.547387 -0.18696,0.780952 -0.37984,1.56051 -0.56089,2.342856 -0.14747,0.637265 -2.3e-4,1.41808 -0.42461,1.915824 -1.017356,1.193226 -2.394753,2.034551 -3.693135,2.913756 -0.09898,0.06703 -0.218882,-0.120499 -0.281289,-0.222456 -0.08592,-0.140367 -0.328393,-1.230107 -0.330809,-1.240214 -0.500679,-2.447208 -0.953727,-4.942387 -1.995074,-7.228914 -0.162404,-0.258262 -0.289481,-0.542454 -0.487209,-0.774784 -0.905608,-1.064096 -4.10703,1.154583 2.582388,-2.168255 0.207902,-0.103273 -0.25496,0.392578 -0.335393,0.610338 -0.04843,0.131138 -0.531101,2.099651 -0.542785,2.146871 -0.349898,1.618099 -0.687597,3.241448 -0.88769,4.886336 -0.03233,0.265731 0.132902,0.63232 -0.07621,0.799449 -1.070612,0.855678 -2.360168,1.393981 -3.540252,2.090973 0.05966,-0.08348 0.150961,-0.151731 0.178972,-0.250439 0.164066,-0.578125 0.317561,-2.192546 0.363628,-2.625682 0.188484,-1.772233 0.361019,-3.549317 0.379875,-5.333085 -0.0026,-0.460407 0.0055,-0.921001 -0.0079,-1.38122 -0.0097,-0.331782 -0.29677,-0.760063 -0.06119,-0.993886 5.616626,-5.574649 3.654981,-3.378777 3.318722,-1.965471 -0.13304,0.559171 -0.193707,1.134158 -0.352372,1.687955 -0.08568,0.317746 -0.155088,0.640334 -0.257048,0.953235 -0.893429,2.741803 -1.763228,2.964021 -4.996812,4.346199 -0.166831,0.07131 -0.324565,-0.162255 -0.486847,-0.243385 -0.114964,-0.216884 -0.269322,-0.417105 -0.34489,-0.650652 -0.136472,-0.42177 -0.392393,-2.173505 -0.439631,-2.505065 -0.234514,-1.64602 -0.404125,-3.300394 -0.636638,-4.946684 -0.07911,-0.456904 -0.138573,-0.917652 -0.237331,-1.370716 -0.412168,-1.89085 -1.30578,-0.107358 2.951178,-2.658195 0.176263,-0.105619 -0.356976,0.234852 -0.455848,0.414983 -0.377859,0.688409 -0.774896,2.468174 -0.935942,3.08978 -1.025269,4.321236 -1.900743,8.67292 -2.502853,13.075481 -0.06284,0.460955 0.125114,1.03926 -0.188518,1.382866 -1.016251,1.113375 -2.32333,1.932204 -3.587234,2.753736 -0.10291,0.06689 -0.229526,-0.128556 -0.278191,-0.241234 -0.103256,-0.239078 -0.113207,-0.50863 -0.156575,-0.765416 -0.07812,-0.462592 -0.141875,-0.927515 -0.207777,-1.392007 -0.08668,-0.610936 -0.166638,-1.222809 -0.249955,-1.834216 -0.268547,-2.175537 -0.520795,-4.356759 -0.830336,-6.526887 -0.07672,-0.537869 -0.158451,-1.075354 -0.260848,-1.608932 -0.04717,-0.245813 -0.374602,-0.560914 -0.187457,-0.727127 0.981411,-0.871636 2.230149,-1.384954 3.345222,-2.077432 -0.22344,0.671314 -0.269531,1.389666 -0.378296,2.087422 -0.22815,1.463651 -0.472331,2.924789 -0.688766,4.390271 -0.270639,1.892488 -0.553971,3.782798 -0.801063,5.678567 -0.06814,0.522787 -0.141306,1.045027 -0.19848,1.569127 -0.04353,0.399016 0.183129,0.918782 -0.103576,1.199687 -1.030163,1.00933 -2.392172,1.611657 -3.588258,2.417482 0.03705,-2.600865 -0.05295,-5.198192 -0.499621,-7.769005 -0.537961,-3.174325 -1.134602,-6.411296 -2.654234,-9.286811 0,0 3.448577,-1.932245 3.448577,-1.932245 z"
       inkscape:connector-curvature="0" />
    <path
       style="fill:#00ff00;stroke-width:0.26458332"
       id="path40"
       d="m 103.87462,77.521582 c -2.35733,3.657941 -4.97144,7.14734 -7.578689,10.629852 -1.907799,2.62513 -2.381517,3.317836 -6.0086,4.80277 -0.818309,0.335018 -1.643838,-2.17347 -1.772436,-2.515674 -0.854866,-4.166759 -0.961003,-8.44109 -1.160753,-12.677344 -0.05489,-0.314891 -0.01937,-0.659969 -0.164661,-0.944673 -0.04481,-0.08781 -0.305774,0.2375 -0.212429,0.205785 0.961464,-0.326676 1.849901,-1.319041 2.84121,-1.098958 0.573254,0.127267 -0.576281,1.023369 -0.855938,1.539711 -0.754631,1.393296 -1.488495,2.797744 -2.236774,4.194461 -0.927301,1.736092 -1.831793,3.485565 -2.842199,5.175596 -0.159409,0.266629 -0.324636,0.529839 -0.494461,0.789959 -0.07334,0.112334 -0.109818,0.277995 -0.234734,0.326932 -1.122756,0.439849 -2.294606,0.742283 -3.441911,1.113425 0.56439,-1.199922 1.293966,-2.311127 1.897454,-3.491055 0.355147,-0.694375 0.315862,-0.45126 0.339513,-0.896792 -0.05738,0.162703 -0.334814,0.54552 -0.172124,0.488108 0.883435,-0.31175 1.587137,-1.051372 2.4888,-1.305628 0.50391,-0.142098 -0.834213,0.632949 -1.246711,0.955376 -1.468091,1.147521 -2.911528,2.326939 -4.35618,3.50366 -1.83116,1.41869 -2.510181,2.04117 -5.264345,3.142318 -0.523743,0.2094 -0.672397,-0.792543 -0.574628,-1.335256 0.139629,-0.775066 0.853707,-1.973022 1.185614,-2.601455 0.89857,-1.51135 1.946177,-2.926215 2.993123,-4.336174 0.118665,-0.159809 1.309309,-1.756805 1.538293,-1.98664 0.190743,-0.19145 0.434683,-0.321239 0.652025,-0.481859 1.395061,-0.538438 2.707453,-1.386332 4.18518,-1.615313 0.400663,-0.06209 0.61587,0.53032 0.890206,0.828857 0.601821,0.654913 1.606092,2.059228 2.106832,2.712583 1.335955,1.74313 1.277313,1.639305 2.666868,3.310866 0.465071,0.327382 0.853874,0.80773 1.395214,0.982146 1.712952,0.551903 4.09348,-1.14129 5.489461,-1.827138 0.399791,-0.196416 -1.529699,0.909137 -1.168122,0.648994 0.52057,-0.374534 1.09824,-0.662528 1.647362,-0.993791 1.774452,-1.041834 3.63937,-2.157548 5.46686,-3.002545 0.2112,-0.09766 0.46537,-0.0021 0.69806,-0.0031 0,0 -3.15896,2.325664 -3.15896,2.325664 v 0 c -0.193275,0.02582 -0.732893,0.198289 -0.579824,0.07749 0.731793,-0.577493 4.294354,-2.592681 1.068912,-0.746411 -2.456276,1.474796 -3.960421,2.390294 -6.852111,4.001908 -1.505585,0.839105 -3.976663,2.276745 -5.800262,1.538846 -0.547772,-0.22165 -0.93454,-0.723437 -1.40181,-1.085157 -1.305848,-1.585431 -2.564929,-3.21142 -3.877251,-4.790832 -0.314608,-0.378637 -0.621602,-0.766363 -0.973731,-1.110385 -0.252388,-0.246581 -1.032422,-0.363468 -0.832294,-0.654073 0.630714,-0.915853 1.776561,-1.337966 2.664844,-2.006952 -0.246558,0.126582 -0.52858,0.200152 -0.73967,0.379746 -0.229153,0.194961 -1.508029,1.864283 -1.608584,1.996183 -1.057273,1.386816 -2.107589,2.785025 -3.00895,4.280342 -0.440984,0.833583 -0.854226,1.517467 -1.157907,2.399485 -0.06282,0.182459 -0.154527,0.377949 -0.116332,0.5671 0.01852,0.09171 0.329213,0.06146 0.254664,0.117988 -0.777941,0.589875 -1.610336,1.112853 -2.475222,1.565759 -0.439782,0.230296 0.794327,-0.59568 1.19149,-0.893519 2.602728,-2.109885 0.182825,-0.149466 2.902509,-2.348857 0.473273,-0.382733 0.944824,-0.767601 1.419275,-1.148874 0.392948,-0.315777 0.760449,-0.667199 1.182904,-0.942258 1.376699,-0.896355 2.737464,-1.832771 4.207005,-2.567069 0.187394,-0.09364 0.404913,0.107622 0.607369,0.161433 0.0087,0.63591 0.06314,0.318672 -0.345424,1.110223 -0.592955,1.148771 -1.267851,2.25279 -1.865114,3.399137 -1.25445,0.700156 -2.488943,1.437335 -3.763354,2.100469 -0.13182,0.06859 0.22809,-0.193363 0.321062,-0.309288 0.205811,-0.256619 0.39134,-0.529286 0.571973,-0.804209 1.098664,-1.672145 2.027709,-3.447663 2.969538,-5.210132 0.945235,-1.799236 1.263385,-2.379319 2.144562,-4.149842 0.253957,-0.51027 0.325924,-1.153972 0.746992,-1.538121 1.184072,-1.080251 2.552888,-1.955688 3.947832,-2.745057 0.143021,-0.08093 0.345837,0.128736 0.404109,0.282393 0.121568,0.320566 0.06099,0.682971 0.09149,1.024456 0.07554,4.192103 0.184753,8.438239 1.15444,12.534622 0.189622,0.469847 0.481389,1.456663 0.958128,1.837015 0.137218,0.109477 0.646909,0.0047 0.513144,0.118348 -6.125192,5.205074 -1.751767,0.787276 -1.592951,0.596696 0.404569,-0.485486 0.76636,-1.005078 1.149538,-1.507619 1.493081,-1.954073 2.959253,-3.921517 4.378764,-5.930024 0.734314,-1.039006 1.704443,-2.409479 2.396495,-3.51304 0.216234,-0.34481 0.406722,-0.705112 0.610092,-1.057669 0,0 3.59624,-1.593908 3.59624,-1.593908 z"
       inkscape:connector-curvature="0" />
    <path
       style="fill:#00ff00;stroke-width:0.26458332"
       id="path42"
       d="m 98.781834,74.117101 c -0.06928,2.419744 -0.06811,4.840915 -0.05774,7.261418 0.0011,0.117354 0.01341,1.816971 0.02625,2.062959 0.0073,0.140584 0.17912,0.355986 0.05321,0.41896 -1.069236,0.534797 -2.183937,1.059915 -3.366116,1.238041 -0.264811,0.0399 0.159612,-0.51126 0.239353,-0.766908 0.0977,-0.313248 0.195315,-0.626523 0.292975,-0.939784 0.343178,-1.089322 0.73301,-2.163416 1.085443,-3.249626 0.239612,-0.738481 0.420566,-1.499687 0.718807,-2.217034 1.223364,-0.520819 2.366374,-1.301295 3.670094,-1.562457 0.26556,-0.0532 0.0872,0.53503 0.11276,0.804662 0.0312,0.329157 0.0424,0.659947 0.0575,0.990237 0.0469,1.026311 0.0817,2.041155 0.18416,3.063925 0.0436,0.233522 0.0319,0.484577 0.13078,0.700561 0.0285,0.06215 0.13538,0.01897 0.20307,0.02846 -1.01134,0.459819 -1.92306,1.377717 -3.034023,1.379461 -0.559488,7.93e-4 0.650335,-0.910818 0.960883,-1.376209 1.01258,-1.51746 1.71909,-2.68424 2.68647,-4.241493 0.51951,-0.848543 1.6415,-2.752172 2.31377,-3.610756 0.2422,-0.309324 0.48023,-0.652653 0.82419,-0.842499 1.29606,-0.715378 2.60232,-1.493049 4.04081,-1.842781 0.35638,-0.08664 0.9,1.571048 0.92476,1.634607 0.64024,2.423199 -0.0944,-0.434735 0.44392,1.89843 0.0552,0.239091 0.0747,0.494765 0.1907,0.710988 0.0529,0.09869 0.17743,0.205838 0.28564,0.176938 0.17037,-0.0455 0.5498,-0.43211 0.39006,-0.357402 -0.91747,0.42908 -1.78768,0.952709 -2.68153,1.429062 0.70643,-0.602948 0.82191,-0.67786 1.47973,-1.33378 0.21119,-0.210577 0.36755,-0.48446 0.617,-0.647925 1.23723,-0.810779 2.44594,-1.710195 3.81945,-2.259357 0.2252,-0.09004 0.39946,0.311359 0.49299,0.535136 0.14439,0.345469 0.12878,0.737703 0.19317,1.106554 0.0632,2.872684 -0.33801,5.731491 -0.6823,8.577519 -0.22262,1.384392 -0.18799,1.714275 -3.58345,1.327827 -0.47651,-0.05423 0.13636,-0.9501 0.23456,-1.419532 0.25248,-1.263012 0.65395,-2.491663 0.91917,-3.751559 0.10446,-0.496244 0.16432,-1.000839 0.24648,-1.501259 -0.0639,-0.277386 0.006,-0.62748 -0.1917,-0.832159 -0.15689,-0.162327 -0.45799,-0.12858 -0.67425,-0.06381 -0.57613,0.172558 -1.10157,0.48455 -1.63806,0.756369 -1.82444,0.924388 -3.53301,1.927106 -5.31144,2.9404 -0.11772,0.06707 0.2358,-0.133491 0.3537,-0.200234 -1.81622,1.048639 -3.63019,2.101175 -5.44865,3.145919 -0.651371,0.374227 -1.29502,0.763016 -1.960799,1.110964 -0.762167,0.398323 -2.535619,1.478966 -3.422642,0.640303 -0.196316,-0.185611 -0.238895,-0.484656 -0.358341,-0.726983 -0.0057,-0.293494 -0.04834,-0.5886 -0.01709,-0.88048 0.06599,-0.616223 0.327047,-1.293445 0.538256,-1.867233 0.276793,-0.751957 0.579871,-1.490681 0.832998,-2.251202 -0.05349,-1.269897 -0.04601,-0.568857 3.34183,-1.483509 0.269865,-0.07286 -0.352938,0.433573 -0.527023,0.652272 -0.282705,0.355159 -0.562978,0.712248 -0.843325,1.069272 -1.095902,1.39565 -0.840351,1.070255 -1.882934,2.431179 -0.882258,1.230553 -0.98416,1.53533 -3.349093,1.819193 -0.607507,0.07292 1.031184,-0.660138 1.564365,-0.960302 5.31745,-2.993589 3.988366,-2.305249 8.030878,-4.185873 2.57465,-1.128075 5.13951,-2.283624 7.73134,-3.37218 0.8544,-0.35885 2.11886,-0.971638 3.13024,-0.962065 0.31424,0.003 0.60194,0.18084 0.90292,0.271261 0.16898,0.257173 0.41001,0.479465 0.50694,0.771523 0.27861,0.839515 0.0798,1.926269 -0.0567,2.739144 -0.2643,1.573963 -0.71762,3.111415 -1.14625,4.6458 -0.0734,0.296214 -0.1671,0.588118 -0.22016,0.88864 -0.006,0.03416 0.0313,0.06193 0.0469,0.0929 -1.06789,0.411054 -2.05944,1.243369 -3.20366,1.233162 -0.52047,-0.0046 0.62512,-0.83244 0.93119,-1.253432 1.17739,-1.619467 0.97861,-1.357852 2.05266,-2.989882 0.16601,-0.302987 1.43991,-2.148228 0.71392,-2.638819 -0.49323,-0.333303 -2.53152,0.346607 -2.9403,0.464995 -2.31507,0.754134 -4.59377,1.611577 -6.90761,2.369293 0,0 3.04389,-2.361374 3.04389,-2.361374 v 0 c 2.30788,-0.746943 4.57883,-1.600478 6.89146,-2.333093 0.87935,-0.224867 2.50505,-0.890236 3.33375,-0.05736 0.8608,0.865132 -0.32194,2.34051 -0.68134,3.042322 -1.52627,2.330037 -0.40771,0.650574 -2.01525,2.989239 -0.27508,0.400195 -0.42626,0.919567 -0.81948,1.204531 -1.21198,0.878314 -2.55586,1.568218 -3.90398,2.218532 -0.37712,0.181914 0.77907,-2.687688 0.23255,-1.234377 0.4519,-1.51647 0.91712,-3.032622 1.18219,-4.596352 0.11068,-0.652965 0.2967,-1.741443 0.0961,-2.453659 -0.0576,-0.204372 -0.23008,-0.356925 -0.34512,-0.535387 -0.24973,-0.05555 -0.49363,-0.178559 -0.74919,-0.166655 -0.96095,0.04476 -2.13928,0.594817 -2.96444,0.935394 -2.57792,1.064022 -5.12954,2.195232 -7.672128,3.340293 -0.88365,0.420318 -1.7673,0.840632 -2.650953,1.260949 0.321784,-0.229116 1.330288,-0.838536 0.965346,-0.687353 -0.52918,0.219226 -0.960885,0.626586 -1.466837,0.895109 -1.427093,0.757396 -2.846636,1.537243 -4.328599,2.180693 -0.370255,0.160759 0.918853,-2.861654 0.564232,-1.071467 0.302913,-0.392107 0.606655,-0.783574 0.908741,-1.176316 0.330398,-0.429549 1.375042,-1.789708 1.737436,-2.285127 0.157909,-0.215871 0.230513,-0.518845 0.458727,-0.65832 3.872637,-2.366804 3.678547,-3.37575 3.867279,-1.717194 -0.284054,0.762476 -0.583739,1.518518 -0.877358,2.277338 -0.222985,0.576273 -0.463571,1.128731 -0.574545,1.741368 -0.04265,0.235434 -0.03301,0.477393 -0.04952,0.716092 0.06374,0.156395 0.06158,0.360953 0.19123,0.469191 0.440613,0.367858 1.233143,0.0455 1.61126,-0.09967 1.128909,-0.433393 2.320409,-1.192927 3.356939,-1.756931 0.24852,-0.135231 -0.48735,0.287578 -0.73102,0.431369 0.0758,-0.04372 7.10243,-4.115941 8.61763,-4.947888 0.79805,-0.438187 3.33685,-1.938145 4.55055,-2.028738 1.05822,-0.07899 0.94085,0.787731 1.0577,1.423239 -0.0935,0.515945 -0.16886,1.035502 -0.28044,1.547836 -0.3643,1.672653 -0.56442,2.013598 -0.87055,3.687035 -0.0806,0.440557 0.14787,1.01682 -0.16945,1.332883 -1.01333,1.009306 -2.35817,1.620092 -3.56534,2.387084 -0.0819,0.05201 0.11639,-0.155149 0.17459,-0.232722 0.46676,-2.794312 0.83889,-5.635355 0.73804,-8.472635 -0.0433,-0.285327 -0.0403,-0.581692 -0.13003,-0.855978 -0.0242,-0.07398 -0.12871,-0.08759 -0.19307,-0.131384 0.9425,-0.569658 1.88501,-1.139314 2.82752,-1.708973 0.2756,-0.129791 -0.40888,0.451871 -0.62148,0.670047 -0.51984,0.533463 -0.89552,0.868643 -1.44102,1.37401 -1.34665,0.809922 -2.64731,1.701763 -4.03995,2.429759 -0.19063,0.09965 -0.44377,0.09519 -0.64503,0.01929 -0.63014,-0.237667 -0.68967,-2.377665 -0.95855,-2.978986 -0.10379,-0.264581 -0.16972,-0.547341 -0.31136,-0.793742 -0.81703,-1.42131 -2.33248,0.550524 2.29815,-2.349291 0.35049,-0.219488 -0.67141,0.494273 -0.94316,0.805998 -0.7649,0.877416 -1.83383,2.707108 -2.40397,3.627154 -0.85602,1.398579 -1.73251,2.784792 -2.57003,4.194524 -0.27555,0.463825 -0.37084,1.078484 -0.79788,1.408184 -0.39197,0.302622 -3.680344,3.328808 -4.250772,1.92191 -0.09396,-0.231738 -0.08053,-0.493594 -0.120798,-0.740392 -0.119531,-1.340077 -0.122055,-2.688026 -0.258551,-4.025966 -0.02164,-0.212281 -0.253201,-0.499729 -0.08747,-0.634143 1.021778,-0.828722 2.253761,-1.357868 3.380641,-2.036802 -0.0824,0.102955 -0.19249,0.188905 -0.24729,0.308864 -0.076,0.166262 -0.57682,1.813928 -0.59704,1.876137 -0.35052,1.078312 -0.74546,2.142376 -1.070459,3.229136 -0.09136,0.308004 -0.187206,0.614717 -0.274089,0.924015 -0.07139,0.254127 0.0081,0.604512 -0.20065,0.766048 -3.376665,2.612774 -3.719872,3.668451 -3.713215,1.781749 0.0024,-0.696619 0.03827,-1.392904 0.02625,-2.0897 0.01024,-2.40088 0.01238,-4.802476 -0.05774,-7.202572 0,0 3.525994,-1.796585 3.525994,-1.796585 z"
       inkscape:connector-curvature="0" />
  </g>
</svg>
